<svg id="Layer_1" data-name="Layer 1" xmlns="http://www.w3.org/2000/svg" viewBox="0 0 1080 1080"><defs><style>.cls-1{fill:#40f;}.cls-2{fill:#3b82f6;}</style></defs><title>Artboard 1</title><path class="cls-1" d="M697.43,872l-12.74-8.5q99.12-60.89,111.86-181.25-189-55.93-189-225.84,0-104.78,69.38-176.65T846.83,208q102,0,167.8,72.22T1080.47,465q0,141.6-109.38,260.54T697.43,872Z"/><path class="cls-2" d="M91.39,872l-12.74-8.5q99.12-60.89,111.86-181.25-189-55.93-189-225.84,0-104.78,69.38-176.65T240.79,208q102,0,167.8,72.22T474.42,465q0,141.6-109.38,260.54T91.39,872Z"/></svg>