<svg id="Layer_1" data-name="Layer 1" xmlns="http://www.w3.org/2000/svg" viewBox="0 0 3954 1080"><defs><style>.cls-1{fill:#fff;}.cls-2{fill:#40f;}.cls-3{fill:#3b82f6;}</style></defs><title>qBox-log-with-text-white</title><path class="cls-1" d="M1614.13,796.28q-74.63,0-134.52-33.38t-94.75-94.26Q1350,607.76,1350,524.29q0-82.48,34.86-143.36t94.75-94.75q59.88-33.88,134.52-33.88,69.71,0,119.3,29.46t76.1,89.35Q1836,431,1836,524.29q0,92.31-27.49,152.69T1731,766.82Q1680.9,796.28,1614.13,796.28Zm26.51-125.68q37.3,0,67.75-17.67t48.6-50.57q18.16-32.89,18.17-78.06,0-46.14-18.17-78.55t-48.6-50.08Q1677.95,378,1640.64,378q-38.29,0-68.73,17.67t-48.6,50.08q-18.18,32.4-18.17,78.55,0,45.18,18.17,78.06t48.6,50.57Q1602.33,670.59,1640.64,670.59Zm131.58,308.32V681.39L1782,525.27l-2.95-157.1v-108h146.3V978.91Z"/><path class="cls-1" d="M2077.58,788.42V101.09h335.81q129.61,0,194.91,49.1t65.3,129.61q0,54-26.51,93.77t-72.66,61.37q-46.16,21.61-106,21.6L2487,416.28q64.81,0,114.88,21.11T2680,499.74q28,41.24,28,101.14,0,88.37-69.72,138T2433,788.42Zm158.09-119.79h185.58q61.86,0,93.77-20.13t31.91-64.31q0-43.2-31.91-64.31t-93.77-21.11H2223.88V382.9h169.87q57.92,0,88.86-20.13t30.93-61.37q0-40.25-30.93-60.39t-88.86-20.13H2235.67Z"/><path class="cls-1" d="M3069.3,796.28q-84.46,0-149.74-35.35t-103.1-96.72q-37.81-61.35-37.8-139.92,0-79.53,37.8-140.9t103.1-96.23q65.29-34.84,149.74-34.86,83.45,0,149.25,34.86t103.1,95.74Q3359,443.79,3359,524.29q0,78.57-37.31,139.92t-103.1,96.72Q3152.76,796.28,3069.3,796.28Zm0-125.68q38.29,0,68.73-17.67t48.11-50.57q17.67-32.89,17.67-78.06,0-46.14-17.67-78.55T3138,395.66Q3107.59,378,3069.3,378t-68.73,17.67q-30.45,17.67-48.6,50.08t-18.17,78.55q0,45.18,18.17,78.06t48.6,50.57Q3031,670.59,3069.3,670.59Z"/><path class="cls-1" d="M3377.62,788.42l236.64-310.28-2.95,84.44L3384.5,260.16h171.83l143.36,197.36-64.81,2,148.27-199.33h163l-227.8,299.48V477.16L3954,788.42H3780.2L3630,578.29l63.82,8.84L3544.55,788.42Z"/><path class="cls-2" d="M697.43,872l-12.74-8.5q99.12-60.89,111.86-181.25-189-55.93-189-225.84,0-104.78,69.38-176.65T846.83,208q102,0,167.8,72.22T1080.47,465q0,141.6-109.38,260.54T697.43,872Z"/><path class="cls-3" d="M91.39,872l-12.74-8.5q99.12-60.89,111.86-181.25-189-55.93-189-225.84,0-104.78,69.38-176.65T240.79,208q102,0,167.8,72.22T474.42,465q0,141.6-109.38,260.54T91.39,872Z"/></svg>